<?xml version="1.0" encoding="UTF-8"?>
<svg xmlns="http://www.w3.org/2000/svg" version="1.1" viewBox="0 0 595.28 342.04">
  <defs>
    <style>
      .cls-1 {
        fill: #231f20;
      }

      .cls-2 {
        fill: #f2684e;
      }
    </style>
  </defs>
  <!-- Generator: Adobe Illustrator 28.7.1, SVG Export Plug-In . SVG Version: 1.2.0 Build 142)  -->
  <g>
    <g id="Layer_1">
      <polygon class="cls-1" points="191.95 38.24 191.95 79.11 122.55 79.11 122.55 251.02 75.63 251.02 75.63 79.11 8.28 79.11 8.28 38.24 191.95 38.24"/>
      <path class="cls-1" d="M355.05,156.13s32.07-14.72,26.82-55.99c-.63-4.9-1.76-9.75-3.51-14.38-4.38-11.56-12.65-21.1-23.28-27.34-3.84-2.25-7.92-4.08-12.13-5.49-8.36-2.78-16.66-2.21-25.33-2.21h-67.91v200.3h45.43v-84.64h13.91l37.01,84.64h50.92l-41.93-94.89ZM334.09,118.84c-1.55,3.03-4.12,6.93-7.95,6.93h-31v-35.62h27.32c13.27,2,17.07,18.06,11.63,28.69Z"/>
      <polygon class="cls-1" points="172.89 124.06 172.89 147.46 233.61 147.46 233.61 184.78 172.89 184.78 172.89 211.33 243.86 211.33 243.86 251.02 126.89 251.02 126.89 84.37 243.86 84.37 243.86 124.06 172.89 124.06"/>
      <path class="cls-1" d="M559.49,191.28v46.08c-12.49-.29-22.51-10.49-22.51-23.04s10.02-22.76,22.51-23.04Z"/>
      <path class="cls-1" d="M559.49,65.18v118.37c-16.72.29-30.23,13.98-30.23,30.77s13.51,30.48,30.23,30.77v5.93h-45.6v-88.36l-20.46,44.31-8.32,18.03h-23.84l-8.32-18.03-20.46-44.31v88.36h-29.71l-15.89-35.96V77.01h50.47l35.84,83.05,35.84-83.05,4.86-11.27.24-.56h45.36Z"/>
      <polygon class="cls-1" points="514.12 65.18 513.88 65.74 513.88 65.18 514.12 65.18"/>
      <path class="cls-2" d="M583.09,214.32c0,12.73-10.32,23.06-23.05,23.06-.19,0-.36,0-.55-.02-12.49-.29-22.51-10.49-22.51-23.04s10.02-22.76,22.51-23.04c.19-.02.36-.02.55-.02,12.73,0,23.05,10.32,23.05,23.06Z"/>
      <g>
        <path class="cls-1" d="M89.31,279.67c0-1.58.03-1.85.03-2.06h-.05c-.84,1-2.66,2.37-5.43,2.37-4.59,0-8.23-3.4-8.23-9.57s3.51-9.54,8.41-9.54c4.01,0,6.56,2.27,7.49,5.09l-2.71.74c-.5-1.37-1.9-3.19-4.85-3.19-3.37,0-5.51,2.48-5.51,6.83s2.29,7.01,5.75,7.01c2.77,0,4.48-1.56,5.04-2.72v-2.32h-4.51v-2.61h7.12v9.97h-2.53Z"/>
        <path class="cls-1" d="M116.36,272.53c0,4.93-2.48,7.49-6.83,7.49s-6.83-2.56-6.83-7.49v-11.31h2.82v11.28c0,3.24,1.24,4.85,4.03,4.85s4.09-1.61,4.09-4.85v-11.28h2.71v11.31Z"/>
        <path class="cls-1" d="M127.59,261.22h2.79v18.45h-2.79v-18.45Z"/>
        <path class="cls-1" d="M147.95,261.22c5.33,0,8.7,3.59,8.7,9.33s-3.37,9.12-8.57,9.12h-6.27v-18.45h6.14ZM147.87,277.06c3.43,0,5.96-2.06,5.96-6.48s-2.56-6.75-6.04-6.75h-3.19v13.23h3.27Z"/>
        <path class="cls-1" d="M167.25,261.22h11.52v2.61h-8.73v4.96h6.72v2.64h-6.72v5.64h8.81v2.61h-11.6v-18.45Z"/>
        <path class="cls-1" d="M211.12,263.83v15.84h-2.77v-15.84h-5.4v-2.61h13.58v2.61h-5.4Z"/>
        <path class="cls-1" d="M233.95,260.87c4.98,0,8.49,3.45,8.49,9.57s-3.51,9.57-8.49,9.57-8.49-3.48-8.49-9.57,3.51-9.57,8.49-9.57ZM233.95,277.35c3.32,0,5.67-2.35,5.67-6.91s-2.35-6.93-5.67-6.93-5.67,2.37-5.67,6.91,2.32,6.93,5.67,6.93Z"/>
        <path class="cls-1" d="M273.29,261.22c5.33,0,8.7,3.59,8.7,9.33s-3.37,9.12-8.57,9.12h-6.27v-18.45h6.14ZM273.21,277.06c3.43,0,5.96-2.06,5.96-6.48s-2.56-6.75-6.04-6.75h-3.19v13.23h3.27Z"/>
        <path class="cls-1" d="M292.59,261.22h2.79v18.45h-2.79v-18.45Z"/>
        <path class="cls-1" d="M319.67,279.67c0-1.58.03-1.85.03-2.06h-.05c-.84,1-2.66,2.37-5.43,2.37-4.59,0-8.22-3.4-8.22-9.57s3.51-9.54,8.41-9.54c4.01,0,6.56,2.27,7.49,5.09l-2.72.74c-.5-1.37-1.9-3.19-4.85-3.19-3.37,0-5.51,2.48-5.51,6.83s2.29,7.01,5.75,7.01c2.77,0,4.48-1.56,5.04-2.72v-2.32h-4.51v-2.61h7.12v9.97h-2.53Z"/>
        <path class="cls-1" d="M333.27,261.22h2.79v18.45h-2.79v-18.45Z"/>
        <path class="cls-1" d="M354.79,263.83v15.84h-2.77v-15.84h-5.4v-2.61h13.58v2.61h-5.4Z"/>
        <path class="cls-1" d="M371.42,275.4l-1.42,4.27h-2.9l6.49-18.45h3.35l6.49,18.45h-2.95l-1.45-4.27h-7.59ZM376.59,268.15c-.55-1.66-1.29-3.9-1.32-3.95h-.08c-.03.05-.76,2.27-1.32,3.93l-1.58,4.72h5.88l-1.58-4.69Z"/>
        <path class="cls-1" d="M393.65,261.22h2.79v15.84h8.2v2.61h-10.99v-18.45Z"/>
        <path class="cls-1" d="M438.31,272.68c0,4.77-2.08,7.33-6.09,7.33-2.03,0-3.48-.76-4.46-2.06l1.71-2.03c.69.92,1.53,1.42,2.72,1.42,2.56,0,3.32-1.71,3.32-4.82v-11.31h2.79v11.47Z"/>
        <path class="cls-1" d="M463.02,272.53c0,4.93-2.48,7.49-6.83,7.49s-6.83-2.56-6.83-7.49v-11.31h2.82v11.28c0,3.24,1.24,4.85,4.03,4.85s4.09-1.61,4.09-4.85v-11.28h2.72v11.31Z"/>
        <path class="cls-1" d="M477.02,266.12h-.08s.05,2.21.05,4.51v9.04h-2.74v-18.45h2.87l8.52,13.52h.08s-.05-2.21-.05-4.4v-9.12h2.74v18.45h-2.87l-8.52-13.55Z"/>
        <path class="cls-1" d="M512.72,279.67c0-1.58.03-1.85.03-2.06h-.05c-.84,1-2.66,2.37-5.43,2.37-4.59,0-8.23-3.4-8.23-9.57s3.51-9.54,8.41-9.54c4.01,0,6.56,2.27,7.49,5.09l-2.72.74c-.5-1.37-1.9-3.19-4.85-3.19-3.37,0-5.51,2.48-5.51,6.83s2.29,7.01,5.75,7.01c2.77,0,4.48-1.56,5.04-2.72v-2.32h-4.51v-2.61h7.12v9.97h-2.53Z"/>
        <path class="cls-1" d="M526.32,261.22h2.79v15.84h8.2v2.61h-10.99v-18.45Z"/>
        <path class="cls-1" d="M547.89,261.22h11.52v2.61h-8.73v4.96h6.72v2.64h-6.72v5.64h8.81v2.61h-11.6v-18.45Z"/>
      </g>
    </g>
  </g>
</svg>